<svg width="24" height="24" viewBox="0 0 24 24" fill="none" xmlns="http://www.w3.org/2000/svg">
<g id="facebook">
<path id="Vector" d="M17.99 1.59607C16.9813 1.48906 15.9675 1.43698 14.953 1.44007C11.59 1.44007 9.50005 3.58207 9.50005 7.03007V9.37107H6.67505C6.54244 9.37107 6.41526 9.42375 6.3215 9.51752C6.22773 9.61129 6.17505 9.73846 6.17505 9.87107V13.7211C6.17505 13.8537 6.22773 13.9809 6.3215 14.0746C6.41526 14.1684 6.54244 14.2211 6.67505 14.2211H9.50005V21.9411C9.50005 22.0737 9.55273 22.2009 9.64649 22.2946C9.74026 22.3884 9.86744 22.4411 10 22.4411H13.978C14.1107 22.4411 14.2378 22.3884 14.3316 22.2946C14.4254 22.2009 14.478 22.0737 14.478 21.9411V14.2211H17.294C17.4154 14.2211 17.5327 14.177 17.624 14.097C17.7152 14.0169 17.7743 13.9064 17.79 13.7861L18.287 9.93607C18.2963 9.8655 18.2904 9.79377 18.2697 9.72568C18.249 9.65758 18.214 9.59469 18.167 9.54121C18.1201 9.48772 18.0623 9.44488 17.9974 9.41554C17.9326 9.3862 17.8622 9.37104 17.791 9.37107H14.478V7.41207C14.478 6.44207 14.673 6.03707 15.886 6.03707H17.925C18.0577 6.03707 18.1848 5.98439 18.2786 5.89062C18.3724 5.79686 18.425 5.66968 18.425 5.53707V2.09207C18.4251 1.97068 18.381 1.85341 18.301 1.76215C18.2209 1.67088 18.1104 1.61185 17.99 1.59607ZM17.425 5.03607L15.885 5.03707C13.728 5.03707 13.478 6.39307 13.478 7.41207V9.87207C13.478 10.0045 13.5306 10.1315 13.6241 10.2253C13.7177 10.319 13.8446 10.3718 13.977 10.3721H17.223L16.854 13.2221H13.978C13.8454 13.2221 13.7183 13.2747 13.6245 13.3685C13.5307 13.4623 13.478 13.5895 13.478 13.7221V21.4401H10.5V13.7221C10.5 13.5895 10.4474 13.4623 10.3536 13.3685C10.2598 13.2747 10.1327 13.2221 10 13.2221H7.17605V10.3721H10C10.1327 10.3721 10.2598 10.3194 10.3536 10.2256C10.4474 10.1319 10.5 10.0047 10.5 9.87207V7.03007C10.5 4.15607 12.165 2.44007 14.953 2.44007C15.962 2.44007 16.873 2.49507 17.425 2.54307V5.03607Z" fill="white"/>
</g>
</svg>
