<svg width="24" height="24" viewBox="0 0 24 24" fill="none" xmlns="http://www.w3.org/2000/svg">
<g id="Telegram">
<path id="Vector" d="M21.5624 3.1218C21.3812 2.96484 21.1607 2.86011 20.9245 2.81882C20.6884 2.77754 20.4455 2.80125 20.2218 2.88742L2.9155 9.6843C2.64997 9.78717 2.42509 9.97362 2.2748 10.2155C2.12452 10.4574 2.05698 10.7416 2.08238 11.0252C2.10778 11.3089 2.22474 11.5765 2.41561 11.7879C2.60648 11.9992 2.86091 12.1427 3.1405 12.1968L7.68738 13.1062V18.7499C7.68769 19.0085 7.76437 19.2612 7.90781 19.4764C8.05125 19.6916 8.25505 19.8596 8.49363 19.9593C8.6545 20.0249 8.82619 20.0598 8.99988 20.0624C9.1724 20.0635 9.34338 20.03 9.50277 19.964C9.66216 19.898 9.80674 19.8008 9.928 19.678L12.4874 17.1187L16.3124 20.4843C16.5493 20.6967 16.8567 20.8137 17.1749 20.8124C17.312 20.8136 17.4483 20.7914 17.578 20.7468C17.7945 20.678 17.989 20.5534 18.1421 20.3855C18.2951 20.2177 18.4013 20.0125 18.4499 19.7905L21.9843 4.40617C22.0371 4.17396 22.0257 3.93174 21.9514 3.70549C21.8771 3.47924 21.7426 3.27746 21.5624 3.1218ZM3.2155 10.9218C3.20895 10.8823 3.21667 10.8417 3.23728 10.8074C3.25789 10.773 3.29005 10.7471 3.328 10.7343L17.8124 5.04367L8.11863 12.0468L3.3655 11.0905C3.32407 11.0859 3.28582 11.0661 3.25813 11.035C3.23043 11.0038 3.21525 10.9635 3.2155 10.9218ZM9.13113 18.8812C9.10513 18.9084 9.07116 18.9267 9.0341 18.9335C8.99705 18.9402 8.95881 18.935 8.92488 18.9187C8.89192 18.9043 8.86379 18.8807 8.84384 18.8508C8.8239 18.8209 8.81298 18.7859 8.81238 18.7499V13.8843L11.6343 16.378L9.13113 18.8812ZM17.3624 19.5374C17.356 19.5699 17.3411 19.6002 17.3192 19.6251C17.2973 19.6499 17.2692 19.6686 17.2377 19.679C17.2063 19.6895 17.1726 19.6915 17.1402 19.6847C17.1077 19.678 17.0776 19.6627 17.053 19.6405L9.14988 12.6843L20.8686 4.22805L17.3624 19.5374Z" fill="white"/>
</g>
</svg>
