<svg width="24" height="24" viewBox="0 0 24 24" fill="none" xmlns="http://www.w3.org/2000/svg">
<g id="twitter">
<path id="Vector" d="M23.0155 6.53442C22.9732 6.43234 22.9017 6.345 22.81 6.28331C22.7183 6.22162 22.6104 6.18831 22.4999 6.18754H19.5374C19.1712 5.515 18.6326 4.95209 17.9768 4.55666C17.3211 4.16122 16.5718 3.94753 15.8062 3.93754C14.6557 3.93254 13.5501 4.3835 12.7313 5.19172C11.9126 5.99994 11.4473 7.09961 11.4374 8.25004V9.06567C7.4624 8.11879 4.18115 4.88442 4.14365 4.85629C4.07138 4.78494 3.98113 4.73449 3.8825 4.7103C3.78386 4.6861 3.68052 4.68906 3.58343 4.71886C3.48634 4.74866 3.39913 4.80419 3.33106 4.87955C3.26298 4.95492 3.21658 5.04731 3.19678 5.14692C2.38115 9.60942 3.72178 12.5907 4.9874 14.3063C5.65865 15.2249 6.48323 16.0209 7.4249 16.6594C5.97178 18.4219 3.58115 19.3407 3.55303 19.35C3.47315 19.3795 3.40114 19.4269 3.34261 19.4887C3.28407 19.5505 3.24058 19.6249 3.21553 19.7063C3.18892 19.7857 3.18101 19.8701 3.19239 19.953C3.20377 20.036 3.23415 20.1152 3.28115 20.1844C3.3749 20.325 4.29365 21.5625 7.4999 21.5625C14.0343 21.5625 19.4999 16.5094 20.0249 10.0219L22.8937 7.14379C22.975 7.0676 23.0304 6.9679 23.0523 6.85864C23.0741 6.74938 23.0613 6.63602 23.0155 6.53442ZM19.078 9.37504C18.9805 9.47233 18.9235 9.603 18.9187 9.74067C18.5343 15.7407 13.5187 20.4375 7.4999 20.4375C6.19678 20.4375 5.3624 20.2125 4.86553 19.9875C5.9249 19.4532 7.65928 18.4032 8.71865 16.8094C8.76086 16.7433 8.78926 16.6694 8.80215 16.5921C8.81504 16.5147 8.81215 16.4356 8.79365 16.3594C8.77367 16.2815 8.73745 16.2086 8.68737 16.1456C8.63729 16.0826 8.57447 16.0309 8.50303 15.9938C8.48428 15.9938 7.07803 15.2625 5.85928 13.5938C4.40615 11.6063 3.83428 9.17817 4.15303 6.37504C5.52178 7.53754 8.4749 9.73129 11.9062 10.3032C11.9869 10.3185 12.0701 10.3157 12.1496 10.2948C12.2291 10.274 12.303 10.2357 12.3658 10.1827C12.4287 10.1297 12.4789 10.0634 12.5129 9.98855C12.547 9.91371 12.5638 9.83223 12.5624 9.75004V8.25004C12.5698 7.40046 12.9132 6.58835 13.5175 5.9911C14.1217 5.39386 14.9378 5.06003 15.7874 5.06254C16.4013 5.0714 16.9997 5.25634 17.5116 5.59537C18.0235 5.93439 18.4272 6.41326 18.6749 6.97504C18.7177 7.0761 18.7895 7.16215 18.8814 7.22225C18.9732 7.28235 19.0808 7.31378 19.1905 7.31254H21.1405L19.078 9.37504Z" fill="white"/>
</g>
</svg>
