<svg width="22" height="22" viewBox="0 0 22 22" fill="none" xmlns="http://www.w3.org/2000/svg">
<g id="Base/search">
<g id="Vector">
<path d="M1.146 9.62498C1.146 4.94208 4.94227 1.14581 9.62516 1.14581C14.3081 1.14581 18.1043 4.94208 18.1043 9.62498C18.1043 14.3079 14.3081 18.1041 9.62516 18.1041C4.94227 18.1041 1.146 14.3079 1.146 9.62498ZM9.62516 2.52081C5.70166 2.52081 2.521 5.70148 2.521 9.62498C2.521 13.5485 5.70166 16.7291 9.62516 16.7291C13.5487 16.7291 16.7293 13.5485 16.7293 9.62498C16.7293 5.70148 13.5487 2.52081 9.62516 2.52081Z" fill="white"/>
<path d="M6.5463 6.08775C7.33353 5.30057 8.423 4.81248 9.62516 4.81248C10.8273 4.81248 11.9168 5.30057 12.704 6.08776C12.9725 6.35625 12.9725 6.79155 12.704 7.06004C12.4355 7.32852 12.0002 7.32852 11.7317 7.06004C11.1919 6.52017 10.448 6.18748 9.62516 6.18748C8.80231 6.18748 8.05846 6.52017 7.51854 7.06005C7.25004 7.32853 6.81474 7.32851 6.54626 7.06002C6.27779 6.79152 6.2778 6.35622 6.5463 6.08775Z" fill="white"/>
<path d="M14.7407 14.7405C15.0092 14.472 15.4445 14.472 15.713 14.7405L19.6021 18.6296C19.8705 18.8981 19.8705 19.3334 19.6021 19.6019C19.3336 19.8704 18.8983 19.8704 18.6298 19.6019L14.7407 15.7128C14.4722 15.4443 14.4722 15.009 14.7407 14.7405Z" fill="white"/>
</g>
</g>
</svg>
